<?xml version="1.0" encoding="utf-8"?>
<!-- Generator: Adobe Illustrator 25.1.0, SVG Export Plug-In . SVG Version: 6.00 Build 0)  -->
<svg version="1.1" id="Слой_1" xmlns="http://www.w3.org/2000/svg" xmlns:xlink="http://www.w3.org/1999/xlink" x="0px" y="0px"
	 viewBox="0 0 841.9 595.3" style="enable-background:new 0 0 841.9 595.3;" xml:space="preserve">
<style type="text/css">
	.st0{fill:#A4C3DE;}
	.st1{fill:#B77446;}
	.st2{fill:#5B0C09;}
	.st3{fill:#EB9E69;}
	.st4{fill:#C18053;}
	.st5{fill:#750E0E;}
	.st6{fill:#FFFFFF;stroke:#A4C3DE;stroke-width:4;stroke-miterlimit:10;}
	.st7{fill:#9F654B;}
	.st8{fill:#E96E6E;}
	.st9{fill:#893737;}
	.st10{fill:none;stroke:#C4D8DF;stroke-width:3;stroke-miterlimit:10;}
	.st11{fill:#CE5252;}
	.st12{fill:#B23F3F;}
	.st13{fill:none;stroke:#CE5252;stroke-width:5;stroke-linecap:round;stroke-linejoin:round;stroke-miterlimit:10;}
	.st14{fill:#884949;}
	.st15{fill:none;stroke:#B77446;stroke-width:4;stroke-linecap:round;stroke-miterlimit:10;}
	.st16{fill:#8C1D1C;}
	.st17{fill:none;stroke:#C6865C;stroke-miterlimit:10;}
	.st18{fill:#0E0E0D;}
	.st19{fill:none;stroke:#884949;stroke-width:2;stroke-linecap:round;stroke-miterlimit:10;}
</style>
<path class="st0" d="M699.4,595.3c36.1-52.1,48.2-120.6,48.2-199c0-177-126.3-336.8-322-336.8S119.3,228.8,119.3,405.7
	c0,75.5,7.9,140.2,37.4,189.5H699.4z"/>
<path class="st0" d="M100.3,401c0-129.9,54.9-256,155.7-321.1C127.8,129,57.1,265.5,57.1,406.9c0,75.5,7.9,140.2,37.4,189.5h41.3
	C107.9,544.8,100.3,478.2,100.3,401z"/>
<path class="st1" d="M386,409.1c1.6-0.3,3,1.2,4.1,2.5c7.7,9.5,20.2,14.1,32.4,14.8c12.2,0.8,24.4-1.8,36.3-4.4
	c6.7-1.4,14.2-3.5,17.4-9.5c1.8-3.3,1.8-7.2,2-11c0.5-10.2,2.3-20.3,5.2-30.1c-21-0.5-42.1-2.7-62.7-7.1c-6.7-1.4-17.7-6-24.1-1.6
	c-4.7,3.3-4.8,10.6-5.1,15.7c-0.2,5-0.3,9.9-1.1,14.8c-0.4,2.7-1,5.4-1.8,8C388.4,402.3,386.9,408.9,386,409.1z"/>
<path class="st2" d="M361.5,395.4c1.6,5.8,3.6,12.3,8.3,14.9c3.8,2.1,8.4,1.1,12.2-0.9c11.4-5.9,18.8-20.7,17.6-35
	c-0.7-8.4-4-16.2-7.4-23.6c-3.6-8-7.7-16.4-14.5-21.3c-5.8-4.1-13.4-5-19.5-1c-9.4,6.1-5.5,22.9-4.7,32.7
	C354.5,372.8,358.5,384.2,361.5,395.4z"/>
<path class="st3" d="M377.6,344.1c7.6,16.6,18.6,32.2,34,42c15.4,9.8,35.7,13,52.3,5.3c9.6-4.5,17.3-12.2,24-20.4
	c22.6-27.7,35.3-62.4,40.9-97.7c1.9-12.1,3-24.6,0.3-36.6c-5.6-25.1-29.1-45-54.8-46.4c-11.8-0.6-23.5,2.3-34.9,5.4
	c-9.2,2.5-18.7,5.4-25.6,11.9c-4.5,4.2-7.6,9.6-11.4,14.4c-6,7.5-13.5,13.5-20.7,19.7c-6.5,5.6-14.3,12-18,20
	c-2.7,5.9-0.3,11.9,0.4,18c1.1,10.3,1,20.5,3,30.8C369.1,322,372.7,333.4,377.6,344.1z"/>
<path class="st4" d="M520,280.9c1.7-5.9,3.4-12.1,1.7-18c-0.9-3.1-2.7-5.9-4.5-8.6c-3.5-5.1-7.3-10-11.3-14.6
	c-4.4-5.1-11.1-11.2-18.4-8.4c-4.8,1.9-10.9,9.3-8.7,14.8c1.9,4.7,9.2,5.8,13.5,6.7c6.9,1.5,13.3,2.8,18.3,8.2
	C515.4,266.6,518.1,273.9,520,280.9z"/>
<path class="st4" d="M419.9,386.1c-15.4-9.8-26.4-25.4-34-42c-4.9-10.7-8.5-22.1-10.7-33.7c-2-10.3-1.8-20.5-3-30.8
	c-0.7-6.1-3.1-12.1-0.4-18c3.7-8,11.5-14.4,18-20c7.2-6.2,14.7-12.2,20.7-19.7c3.8-4.8,7-10.2,11.4-14.4c7-6.5,16.4-9.4,25.6-11.9
	c7.3-2,14.6-3.9,22.1-4.8c-11-0.2-22,2.5-32.6,5.5c-9.2,2.5-18.7,5.4-25.6,11.9c-4.5,4.2-7.6,9.6-11.4,14.4
	c-6,7.5-13.5,13.5-20.7,19.7c-6.5,5.6-14.3,12-18,20c-2.7,5.9-0.3,11.9,0.4,18c1.1,10.3,1,20.5,3,30.8c2.2,11.6,5.8,22.9,10.7,33.7
	c7.6,16.6,18.6,32.2,34,42c11.9,7.6,26.7,11.2,40.4,8.9C439.3,395.2,428.8,391.8,419.9,386.1z"/>
<path class="st5" d="M472.5,262.9c-11.4,8.7-25.6,12.4-39.2,16.9c-20.8,6.9-42.3,17.1-52.9,36.2c-10,17.9-8.7,40.8-20.3,57.7
	c-13.5,19.7-39.7,25.2-63.3,29.1c-20.1,3.3-40.1,6.6-60.2,9.9c-21.6,3.6-45.4,6.7-64.1-4.8c-6.5-4-11.8-9.5-17.6-14.4
	c-14.4-11.9-32.5-19.9-51.2-20.4s-37.9,6.6-50.3,20.7c-0.2-13.2,9.3-25.9,22-29.3c-5.8,1.9-11.7,1.7-17.8,1.4
	c-48.9-2.4-18,0.7-2.8-14.5c13-3.8,26.5-7.6,39.9-5.5c12.3,1.9,23.2,8.5,34.3,14c13.9,6.9,28.5,12.2,43.6,15.7
	c-17.1-8.6-28.8-25.1-44.5-36.1c-25.1-17.6-42.2-7.6-76.3-21.9c-13.4-8.8-17.8-16.5-16.4-28.6c10.8,9.1,26.6,11.8,39.9,6.9
	c-10.3-3-18-13.1-18.1-23.8c7.1-1,8,10.6,20.8,14.2c1.1-3.9,15-5.8-4.6-21.7c10.3-2.3,24.6,10.8,33.3,16.7
	c11.9,8.2,28.3,2.3,42.3,5.8c11.1,2.8,19.8,11.3,29.6,17.1s23.6,8.7,32,0.9c-20.4-9.7-38.4-24.6-51.8-42.8
	c21.2,7.2,41.5,16.8,60.5,28.7c5.6,3.5,11.4,7.3,17.9,8.5c9.3,1.7,18.6-2.3,27.3-6.2c12.5-5.6,25.1-11.2,37.6-16.8
	c5.6-2.5,11.2-5,16.2-8.6c5.1-3.7,9.4-8.4,14.2-12.5c13-11.1,29.3-17.4,45.2-23.6c13.1-5,26.3-10.1,40.2-11.9
	c17.1-2.2,35.2,0.2,52,3.2c5.1,0.9,12,2.1,15.7,6.2c3.7,4.1,2.3,10.1,0.6,14.7C483.9,251.5,478.8,258.1,472.5,262.9z"/>
<rect x="571.4" y="70" class="st6" width="126.7" height="404.6"/>
<path class="st7" d="M423.1,419.9c9.8,0.4,20-1.3,28.1-6.9c-10.3,1.2-20-4.5-30.3-5.8c-5.6-0.7-11.2,0-16.8-1
	c-4.2-0.7-7-3.4-10.9-4.7c-3.4-1.1-6.8,2.7-7.1,6.1c-0.1,2,2.3,2.7,4.2,3.7c2,1,4,1.9,6,2.8c4,1.7,8.2,3,12.4,3.9
	C413.4,419.1,418.2,419.7,423.1,419.9z"/>
<path class="st5" d="M513,258.3c4.6,7.4,5.9,16.3,6.9,24.9c2.2,19.5-4.9,47-17.2,62.3c23.6,2.3,55.5-19.2,63.1-41.7
	c2.2-6.6,3.1-13.6,5.4-20.2c2.3-6.6,6-13.2,4.6-20.1c-0.6-3.2-2.3-6.1-4.1-8.8c-16.1-24-43.6-40-72.4-42c-7.3-0.5-26.3,1-22.7,12.9
	c2.9,9.6,16.4,14.9,23.9,20.3C505.4,249.3,509.9,253.2,513,258.3z"/>
<path class="st8" d="M625.9,595.3c-10.1-39.4-20.1-78.9-30.2-118.3c-3-11.6-6.1-23.5-12.9-33.3c-4.5-6.3-10.5-11.5-17.3-15.1
	c-6.1-3.2-12.9-5.3-19.8-6.1c-5.2-0.6-10,0.7-15,1.9c-16.2,3.8-32.1,8.1-47.7,14.1c-11.4,4.4-23,9.6-35.3,9.6
	c-11.6,0-22.7-4.8-34-7.4c-22.5-5.2-48.4-2.9-65.9-17.9c-5.2-4.4-9.2-10.1-14.8-14c-14.3-9.9-35-4.9-47.8,6.9
	c-12.8,11.8-19.3,28.7-24.9,45.2c-14.3,42.1-25,85.5-32.1,129.5c8.3,1.8,16.5,3.4,24.9,5H625.9z"/>
<path class="st5" d="M499.4,157.6c0.2,3.3,0.4,6.6,0.7,10c1.7-3,2.4-6.5,2.1-9.9c-0.9,0.4-1.8,0.5-2.8,0.4"/>
<g>
	<rect x="580.4" y="256.6" class="st0" width="15.9" height="43.6"/>
	<rect x="602.8" y="256.6" class="st0" width="15.9" height="43.6"/>
	<rect x="625.3" y="256.6" class="st0" width="15.9" height="43.6"/>
	<rect x="649.1" y="256.6" class="st0" width="15.9" height="43.6"/>
	<rect x="671.8" y="256.5" class="st0" width="15.9" height="43.6"/>
</g>
<path class="st9" d="M525.3,231.6c4.9,4.6,9.9,9.3,12.8,15c3.8,7.4,4,15.8,4,23.9c0.1,12.6,0.3,29.3-2,41.7
	c12.6-5.6,24.6-17.7,31.2-28.9c6.6-11.2,6.7-26.2-2.5-35.8c-2-2.1-4.3-3.8-6.7-5.4c-8.5-5.8-18-10.3-28-13.3c-6-1.8-14.7-2.8-19.3-7
	C518.3,225.1,521.8,228.4,525.3,231.6z"/>
<path class="st10" d="M212.1,155.8c42.6,33,90.1,22.4,143.8,18.4c24.2-1.8,48.5-3.7,71.9-10.3c48.7-13.7,91.4-47.6,141.8-52.9"/>
<path class="st5" d="M505.6,157.6c0.4,4.7,0.8,9.3,1.2,14c2.9-4.2,4.2-9.1,3.7-13.9c-1.5,0.6-3.2,0.8-4.9,0.6"/>
<path class="st8" d="M297.8,273.9c0,0,59.6-118.2,131.3-118.2S534.2,181,534.2,181l63.6,80.8c0,0-8.2,34.9-22.2,56.6
	C559,344.2,470.8,391,470.8,391l36.7-48.5c0,0,65.1-57.5,65.1-68.6s-66.7-58.6-66.7-58.6l-215.2,87.9L297.8,273.9z"/>
<path class="st11" d="M332.5,281.6c3.5-7,7-14,10.5-21.1c6.7-13.4,13.4-26.9,22.6-38.8c20.5-26.3,51.9-42.3,84-51.3
	c11.5-3.3,23.4-5.7,35.3-7.2c-16.1-4.2-36.9-7.5-62.8-7.5c-71.7,0-138.4,147.5-138.4,147.5l47.6-19.4
	C331.7,283.1,332.1,282.3,332.5,281.6z"/>
<path class="st11" d="M448.1,412.6c6-0.8,12.3-1.9,16.8-5.9c5.2-4.7,6.5-12.1,8.9-18.7c2.4-6.5,7.7-13.4,14.7-12.7
	c8,7.1,13.5,16.7,15.7,27.2c1.1,5.3,1.4,11,4.1,15.7c2.7,4.7,9.1,7.9,13.7,5c2.4-1.5,3.8-4.4,6.4-5.4c8.1-3.2,12.3,13.3,21.1,12.8
	c-1.3,36-29.9,66.7-63.2,80.6s-70.6,14-106.6,11.9c-14.3-0.8-29.1-2.1-41.7-9.1c-19.1-10.6-29.2-32.1-36.2-52.7
	c-6.1-18.1-10.8-38.1-3.8-55.8c5.1-12.9,15.9-22.8,27.9-29.4c8.6-4.7,22.9-12.8,32.9-7.5c7.3,3.9,10.6,13.5,14.7,20.2
	c6.2,10.3,14.7,18.8,26.2,22.7C415.1,416.8,432.3,414.8,448.1,412.6z"/>
<path class="st5" d="M374.4,253.4c4.9-0.5,9.9-0.7,14.7-1.9c3.8-1,7.5-2.6,11.4-3.2c13.8-2.1,29.5,8.3,41,0.4
	c-25.9,14.7-52.9,27.3-79.8,39.9c-11,5.2-22.4,10.4-34.6,10.7c-5.9,0.2-15.2-0.9-19.3-5.7c-3.3-3.7,7.3-12,10-14.5
	c10-9.1,21.9-16.2,34.6-20.7C359.5,256,366.9,254.2,374.4,253.4z"/>
<g>
	<path class="st2" d="M459.2,254.6c-3.4,4.4-7.6,8.1-12.1,11.2c-4.5,3.1-9.2,5.5-14,7.7c-9.5,4.3-19.2,7.5-28.2,11.6
		c-9,4.1-17.4,9.3-25.2,15.4c-3.9,3.1-7.6,6.4-11.1,9.9c-3.5,3.5-6.7,7.3-9.9,11.2c-3.1,3.9-6.2,8-9.6,11.9c-3.3,3.9-7,7.8-11,11.1
		c-4,3.4-8.3,6.3-12.5,9.1l-12.8,8.3l-51.1,33.1c-0.5,0.3-1.2,0.2-1.5-0.3c-0.3-0.5-0.2-1.1,0.3-1.5l50.2-34.6l12.5-8.6
		c4.1-2.9,8.2-5.9,11.9-9.1c7.4-6.5,13.1-14.7,19.2-22.9c3.1-4.1,6.4-8.1,9.9-11.9c3.6-3.8,7.3-7.4,11.3-10.7
		c8-6.7,16.8-12.4,26.2-17c9.4-4.6,18.9-8.1,27.8-12.4c8.8-4.3,17-9.6,22.4-17c1.5-2,4.3-2.4,6.3-1c2,1.5,2.4,4.3,1,6.3
		C459.3,254.5,459.3,254.5,459.2,254.6L459.2,254.6z"/>
</g>
<path class="st5" d="M188.4,223.3c9.7,6,17.6,14.9,22.6,25.2c-9.5-2-19.4-1.8-28.7,0.7c9.3,0.1,16.8,7.3,25.1,11.5
	c17.5,8.9,39.8,4.5,56.6,14.6c7.7,4.6,13.4,11.8,18.9,18.8c8.1-9.8,17.5-17.9,26.8-26.5c8.6-7.8-4.7-12.7-11.3-13.9
	c-5.6-1-11.5-1-17.2-1.6c-6.3-0.7-12.6-1.6-18.8-2.7c-12.2-2.2-24.2-5.4-36-9.4C213.6,235.6,200,230.5,188.4,223.3z"/>
<path class="st3" d="M273.2,292.2c5-13.4,16.2-25.1,30.6-31.9c5.9-2.8,13.9-4.7,19.1-1c0.7,1.5-1.9,2.5-3.8,2.9
	c-6.6,1.2-12.4,5-15.4,10.2c13.9-7.4,40.9-19.4,45.7-14.6c0,2.1-1.5,4.1-3.6,5c2.8-0.8,6.7-1.3,8.1,1c1,1.7-0.2,3.7-1.8,5
	c-1.5,1.3-3.5,2.4-4.5,4c1.9-1.7,5.5,0.5,5.3,2.9c-0.2,2.3-2.5,4.1-4.6,5.6c-5.6,3.9-11.3,7.8-17.8,10.5c-3.8,1.5-8,2.7-11.3,4.9
	c-2.7,1.9-4.7,4.4-6.6,6.9c-3.2,4.1-6.3,8.3-9.5,12.4c-1,1.2-1.9,2.5-3.2,3.5c-2.5,1.9-6,2.7-8.9,4.2c-5.2,2.7-8.4,8-7.9,13.2
	c0-0.4-6.5-1.8-7.2-2c-2.5-0.7-5-1.4-7.4-2.1c-2.3-0.6-5-1-7.1-2c0,0-0.6-2.7,0.3-4c4.6-6.7,6.3-14.3,8.1-21.8
	C270.6,300.6,271.6,296.3,273.2,292.2z"/>
<path class="st3" d="M163.4,595.3h68.8c0.4-0.3,0.7-0.5,1.1-0.8c3.9-3.1,7.7-6.5,10-11c2.9-5.7,2.9-12.4,2.9-18.8
	c0-52.5,5.8-104.9,17.4-156.1c8.3-36.8,1.6-61.2,30.6-85.3c6.1-5.1-18.8-26.5-26.2-10.8c-5.7,12-9.3,22.2-13.6,34.7
	c-1.4,4.1-3.4,8-5.4,11.9c-9.4,18.2-18.7,36.4-28.1,54.6c-6.5,12.6-13,25.2-18.2,38.4c-6.1,15.2-10.4,31-14.7,46.8
	c-3.7,13.5-7.4,26.9-11.1,40.4c-3.2,11.6-6.2,23.4-9.6,34.9c-2,6.6-5.4,13.7-3.8,20.7C163.3,594.9,163.3,595.1,163.4,595.3z"/>
<g>
	<path class="st12" d="M496.9,387c-1.9,7.6-4.9,14.9-8.8,21.5c-3.9,6.7-8.7,12.8-14,18.2c-10.7,10.9-23.6,19.4-37.5,25.3
		c-13.9,5.9-28.5,9.5-43.2,11.6c-14.7,2.2-29.6,3-44.4,3.4c14.8-1.1,29.6-2.6,44.1-5.4c14.5-2.8,28.7-7,41.9-13.3
		c13.1-6.3,25.1-15,34.7-25.7c9.6-10.7,16.7-23.6,19.4-37.4c0.4-2.2,2.5-3.6,4.7-3.2c2.2,0.4,3.6,2.5,3.2,4.7
		C496.9,386.8,496.9,386.9,496.9,387L496.9,387z"/>
</g>
<g>
	<path class="st12" d="M504.9,406.2c-3.9,15-11.9,28.6-22.1,39.9c-10.3,11.3-22.7,20.6-36.2,27.5c-13.5,6.9-28.1,11.6-42.8,14.9
		c-14.8,3.2-29.8,5-44.8,6.1c15-1.4,30-3.6,44.6-7.1c14.6-3.5,28.9-8.6,42.1-15.7c13.2-7.1,25.2-16.4,34.9-27.7
		c9.7-11.2,17.1-24.6,20.5-38.9c0.3-1.1,1.3-1.7,2.4-1.5C504.5,404,505.2,405.1,504.9,406.2C504.9,406.2,504.9,406.2,504.9,406.2
		L504.9,406.2z"/>
</g>
<g>
	<path class="st12" d="M516.4,425c0.7,1.6,1,3.4,0.9,5c-0.1,1.6-0.6,3.1-1.2,4.4c-0.6,1.3-1.5,2.5-2.5,3.6c-1,1-2,1.9-3,2.6
		c-2.1,1.5-4.2,2.5-6.1,3.6c-0.9,0.5-1.8,1.1-2.8,1.7c-0.9,0.6-1.8,1.2-2.7,1.8c-7.1,5.1-13.3,11.6-19.8,17.9
		c-3.3,3.2-6.7,6.2-10.3,9c-3.6,2.8-7.5,5.2-11.5,7.4c-8,4.3-16.5,7.6-24.9,10.9c8.2-3.8,16.4-7.6,24-12.4c3.8-2.4,7.4-5,10.7-7.9
		c3.3-2.9,6.4-6.1,9.5-9.5c6-6.6,11.8-13.7,19.1-19.7c0.9-0.7,1.9-1.4,2.8-2.2c1-0.7,1.9-1.4,2.9-2c2-1.3,3.8-2.4,5.4-3.6
		c0.8-0.6,1.4-1.3,2-1.9c0.5-0.6,0.9-1.3,1.2-2.1c0.3-0.7,0.4-1.5,0.4-2.1c0-0.6-0.2-1.1-0.4-1.6c-0.9-1.7-0.3-3.8,1.4-4.7
		c1.7-0.9,3.8-0.3,4.7,1.4C516.3,424.8,516.3,424.9,516.4,425z"/>
</g>
<g>
	<path class="st12" d="M333,380.2c-0.4,3.6-0.5,7.2-0.1,10.8c0.1,0.9,0.3,1.8,0.4,2.7c0.1,0.9,0.3,1.8,0.5,2.7l0.7,2.7l0.8,2.7
		c1.2,3.5,2.7,7,4.5,10.4c0.8,1.7,1.9,3.3,2.8,5c0.5,0.8,1,1.6,1.6,2.4c0.5,0.8,1.1,1.6,1.6,2.4c2.2,3.2,4.7,6.2,7.2,9.2
		c2.6,2.9,5.3,5.8,8.1,8.5c2.8,2.7,5.8,5.3,9,7.5c3.2,2.2,6.8,3.9,10.6,5c-3.9-0.7-7.7-2.1-11.2-4c-3.5-1.9-6.8-4.2-9.9-6.7
		c-3.1-2.5-6.1-5.1-9-7.9c-2.9-2.8-5.7-5.6-8.3-8.7c-0.7-0.8-1.3-1.5-1.9-2.3c-0.6-0.8-1.3-1.6-1.9-2.4c-1.2-1.6-2.4-3.3-3.5-5
		c-2.3-3.4-4.2-7-5.9-10.8l-1.2-2.9l-1-3c-0.4-1-0.6-2-0.9-3c-0.2-1-0.6-2-0.8-3.1c-0.9-4.2-1.2-8.5-1.2-12.8c0-2.5,2.1-4.5,4.6-4.4
		s4.5,2.1,4.4,4.6c0,0.1,0,0.3,0,0.4L333,380.2z"/>
</g>
<path class="st13" d="M520,535.3c4.5,26.1,5.4,33.5,7.3,59.9"/>
<path class="st10" d="M244.2,127.9c62.9,11,55.9,13.1,109.8,13.3c24.2,0.1,48.7,0.1,72.4-4.6c49.7-9.9,94.9-40.2,145.5-41.6"/>
<path class="st5" d="M439.5,87.5c5.5,5.1,11,10.1,16.4,15.2c-8.7-0.6-17.4-0.3-26.1,0.8c-2.2,0.3-4.3,0.6-6.5,1
	c-0.8,0.1-4.3,1-2.8-0.9c0.5-0.6,1.8-1.1,2.5-1.6c0.8-0.6,1.6-1.1,2.4-1.7c1.6-1.2,3.1-2.4,4.6-3.6C431,96,439.9,87.8,439.5,87.5z"
	/>
<path class="st14" d="M481.3,148.4c4.1,3.8,8.5,7.4,13.7,9.4c3.4,1.3,7.1,1.9,10.8,2.4c12.2,1.4,26.5,0.2,33.8-9.8
	c1.4-1.8,2.4-3.9,2.8-6.2c0.8-4.4-0.9-8.9-3.1-12.8c-6.6-11.4-17.7-19.5-29-26.3c-2.4-1.4-4.8-2.9-7.5-3.8c-3-1-6.2-1.4-9.3-1.8
	c-3.1-0.4-6.2-0.7-9.3-1.1c-5-0.6-10.1-1.1-14.8,0.7c-16.3,6.2-4.2,30.3,2.6,39.1C474.8,142,478,145.3,481.3,148.4z"/>
<path class="st14" d="M453.9,74.9c-4.7-1.1-10.1-0.6-13.7,2.6c-4.3,3.8-4.9,11.2-1.2,15.7c1.4,1.7,3.3,8.1,5.2,9.3
	c4.7,3.1,9.6,1.1,15.2,2.1c5.5,0.9,11-0.4,16.4-1.3c3.1-0.6,8-0.5,8.7-4.4c1.4-7.8-10.4-13.1-15.3-16.3
	C464.3,79.6,459.5,76.2,453.9,74.9z"/>
<path class="st14" d="M581.9,150.4c-5.1,5.3-9,11.8-11.2,18.8c-8.8,0-17.5-1.5-25.8-4.4c-5.1-1.8-19.4-6.3-19.3-13.2
	c0-5.3,5.4-9.4,10.2-9.3c5.9,0.1,11.6,2.8,17.4,3.7c4.8,0.8,9.8,0.9,14.6,1.3c2.5,0.2,4.9,0.5,7.3,1
	C575.8,148.4,581.8,150.5,581.9,150.4z"/>
<path class="st5" d="M536,144.9c10.9,5.7,23.1,8.8,35.4,9"/>
<path class="st5" d="M536,148.6c10.9,5.7,23.1,8.8,35.4,9"/>
<path class="st5" d="M530.6,153.1c10.9,5.7,23.1,8.8,35.4,9"/>
<g>
	<path class="st2" d="M472.9,307.1c2.3,2,4.7,3.4,7.1,4.3c2.4,0.9,4.8,1.3,7.2,1.1c2.4-0.2,4.8-0.8,7.1-1.9c0.6-0.3,1.1-0.6,1.7-1
		c0.6-0.4,1.3-0.8,2-1.2c0.7-0.4,1.5-0.7,2.3-0.8c0.8-0.1,1.8,0,2.4,0.5c-1.6,0.2-2.3,1.2-3.2,2.3l-1.3,1.7
		c-0.5,0.6-1.1,1.2-1.7,1.8c-2.5,2.2-5.7,3.5-9.1,3.7c-1.7,0.1-3.4-0.1-5-0.5c-1.6-0.5-3.1-1.2-4.5-2.1
		C475.4,312.9,473.4,310.2,472.9,307.1z"/>
</g>
<g>
	<path class="st2" d="M409.2,307.1c2.6,2.5,5.1,4.4,7.7,5.7c2.6,1.3,5.3,1.9,7.9,1.7c2.6-0.2,5.3-1.1,7.8-2.6
		c0.6-0.4,1.2-0.8,1.9-1.3c0.7-0.5,1.4-1,2.2-1.5c0.8-0.5,1.6-1,2.6-1.2c0.5-0.1,1-0.2,1.5-0.1c0.5,0.1,1,0.3,1.3,0.6
		c-0.9,0.1-1.6,0.5-2,1c-0.5,0.5-0.9,1.2-1.3,1.8l-1.3,2.1c-0.5,0.7-1.1,1.5-1.7,2.2c-2.6,2.8-6.4,4.7-10.5,5c-2,0.1-4.1-0.1-6-0.8
		c-1.9-0.7-3.6-1.7-5-3C411.3,314.2,409.5,310.7,409.2,307.1z"/>
</g>
<path class="st15" d="M442.3,336.8c2,3.9,5.2,7.7,9.6,8.5c3.3,0.6,6.7-0.6,9.9-1.8c1.4-0.5,2.8-1.1,4-2c1.1-1,1.9-2.5,1.7-3.9"/>
<path class="st1" d="M459.3,325.1c1.2,0.5,2.2-1,2.7-2.3c0.6-1.6,1.2-3.1,1.4-4.8c0.3-2.3,0.2-4.5,0.8-6.7c0.1-0.5,1-3.4,0.2-3.7
	c-0.7-0.2-2.6,3.8-2.8,4.4c-0.9,1.9-1.5,3.9-1.9,5.9C459.1,320.3,459,322.7,459.3,325.1z"/>
<path class="st2" d="M495.1,292.7c6.2-0.5,13.3,0.7,17.1,5.7c-2.3-1.8-4.1-4.5-6.6-6c-1.8-1.1-3.9-1.6-6-2c-6.9-1.3-14-1.4-20.9-0.4
	c-1.1,0.2-3.4,0.2-4.1,1.2c-0.7,1,0.5,2.1,1.3,2.6c0.8,0.4,1.7,0.3,2.6,0.3c1.6,0,3.1,0,4.7-0.1C487.2,293.8,491.1,293,495.1,292.7z
	"/>
<path class="st2" d="M442.1,293.6c1.2-1.3,0.4-3.7-1.2-4.6c-1.5-0.9-3.5-0.9-5.3-0.8c-3.9,0.2-7.7,0.4-11.6,0.6
	c-1,0.1-9.2-0.1-9.4,1.1c-0.2,1.1,4.3,1.6,5,1.6c3.6,0.2,7.1,0.2,10.6,1c2,0.4,3.9,1,5.9,1.3C437.4,293.9,441.2,294.6,442.1,293.6z"
	/>
<path class="st16" d="M442.6,373.2c2.9,1.7,6.2,2.3,9.5,2.7c1.9,0.2,3.9,0.4,5.8,0.2c6.9-0.9,12.5-7.9,11.8-14.8
	c-1.5,1.5-3.9,1.8-6.1,1.9c-5.8,0.4-11.7,0.5-17.6,0.4c-2.8-0.1-5.8-0.5-8.6-0.3c-3.3,0.2-1.8,2.5-0.6,4.3
	C438.4,369.7,440.3,371.8,442.6,373.2z"/>
<g>
	<path class="st5" d="M489.1,237.3c0.9,3.4,0.7,6.9-0.1,10.1c-0.9,3.2-2.4,6.2-4.3,8.7c-3.9,5.2-9,8.8-13.9,12.3
		c-4.9,3.5-9.8,6.9-15,10c-5.2,3.1-10.6,5.9-16,8.4c-10.9,5-22,9.3-32.1,15.6c-5,3.1-9.7,6.8-13.7,11.1c-4.1,4.3-7.4,9.3-9.6,14.8
		l-0.8-0.3c2.1-5.7,5.3-10.9,9.4-15.4c4-4.5,8.7-8.4,13.7-11.8c10-6.8,21.2-11.4,31.8-16.7c5.3-2.6,10.5-5.4,15.5-8.6
		c5-3.2,9.7-6.7,14.5-10.3c4.7-3.6,9.4-7.2,12.6-11.7c3.1-4.4,4.8-10.1,3.3-14.9L489.1,237.3z"/>
</g>
<path class="st2" d="M329.7,363.3c10.6-6.9,20.1-16.3,24.9-28.1c-0.6,13.6-9.1,26.1-20.4,33.7c-5.7,3.8-12,6.5-18.6,8.2
	c-3.3,0.9-6.7,1.5-10.1,2c-1.9,0.3-8.1,1.7-9.3,0.3c1.5-1.7,5.9-2.6,8.1-3.5c3-1.2,6-2.5,8.9-3.8C319,369.6,324.5,366.7,329.7,363.3
	z"/>
<path class="st17" d="M346.4,262.5c-5.9,0.3-11.6,2.4-16.9,5c-4,2-7.9,4.2-11.6,6.7"/>
<path class="st17" d="M348,272.4c-1.8-0.4-3.7,0.2-5.5,0.7c-6.5,2-13.3,4.1-18.3,8.8"/>
<g>
	<rect x="581.1" y="197.6" class="st0" width="15.9" height="43.6"/>
	<rect x="603.6" y="197.6" class="st0" width="15.9" height="43.6"/>
	<rect x="626.1" y="197.6" class="st0" width="15.9" height="43.6"/>
	<rect x="649.8" y="197.6" class="st0" width="15.9" height="43.6"/>
	<rect x="672.5" y="197.4" class="st0" width="15.9" height="43.6"/>
</g>
<g>
	<rect x="579.6" y="370.5" class="st0" width="15.9" height="43.6"/>
	<rect x="602.1" y="370.5" class="st0" width="15.9" height="43.6"/>
	<rect x="624.6" y="370.5" class="st0" width="15.9" height="43.6"/>
	<rect x="648.3" y="370.5" class="st0" width="15.9" height="43.6"/>
	<rect x="671" y="370.4" class="st0" width="15.9" height="43.6"/>
</g>
<g>
	<rect x="579.6" y="315.6" class="st0" width="15.9" height="43.6"/>
	<rect x="602.1" y="315.6" class="st0" width="15.9" height="43.6"/>
	<rect x="624.6" y="315.6" class="st0" width="15.9" height="43.6"/>
	<rect x="648.3" y="315.6" class="st0" width="15.9" height="43.6"/>
	<rect x="671" y="315.5" class="st0" width="15.9" height="43.6"/>
</g>
<circle class="st18" cx="447.5" cy="87.8" r="5.2"/>
<path class="st5" d="M495,140.1c7.3,3.4,15.7,3.1,23.7,2.7c5.5-0.3,11-0.5,16.4-0.8c2.6-2.3,3.4-6.2,2.7-9.7s-2.6-6.5-4.7-9.3
	c-6.1-8.3-13.8-15.4-23-19.9c-6-2.9-12.5-4.5-19.1-4.9c-3.8-0.2-7.8-0.4-11,1.9c-1.7,1.2-3.1,2.8-4.4,4.4c-2.3,2.9-3.2,4.8-1.7,8.4
	c2.2,5.1,4.7,10.2,7.8,14.9C485.1,132.9,489.4,137.5,495,140.1z"/>
<path class="st19" d="M476.7,111.9c-0.1,1.9,1.3,3.5,2.6,4.9c6.8,7.3,14.1,14.6,23.4,18.1c4.7,1.8,9.7,2.5,14.6,3.2
	c5.7,0.8,11.3,1.6,17,2.4"/>
<path class="st19" d="M486.4,114c11.4,10.8,26.2,18,41.7,20.5"/>
<path class="st19" d="M498.9,112.9c6.5,9.2,17.7,15,29.1,15"/>
<path class="st2" d="M123,325.9c-5.5-1.6-11.1-2.4-16.8-3.2c-16.6-2.4-33.2-4.7-49.8-7.1c5.2-0.1,10.5-0.3,15.7-0.4
	c0.1-1.6,0.2-3.3,0.3-4.9c1.7,5.1,8.6,5.5,14,5.4c24.4-0.5,48.2,7.8,68.5,20.9c5.1,3.3,10,6.9,14.6,10.7c2.4,2,4.8,4,7,6.1
	c1.1,1,5.6,4.1,5.6,5.6c0.1,2.6-6,0-7.4-0.6c-5.5-2.3-9.9-6.6-14.5-10.3C149,339.2,137.1,330.1,123,325.9z"/>
<path class="st2" d="M174.6,340.6c6.9,4.3,14.9,6.3,22.9,8.1c12.6,2.8,27,4.6,37.4-3.1c-17.2-2-34.1-6.3-50.1-12.9
	c-3.7-1.5-7.4-3.2-10.6-5.5c-3.1-2.3-5.8-5.2-8.9-7.6c-6.7-5-15-6.7-23.2-7.3c-4.4-0.3-11.6-1.7-15.8,0.1c3.3,2.4,9.4,2.8,13.3,4
	c8.4,2.7,14.4,6.5,20.9,12.5C164.9,333,169.3,337.4,174.6,340.6z"/>
<g>
	<path class="st5" d="M216.6,318.6c-4.5-2.7-8.9-5.2-13.5-6.6c-1.1-0.4-2.3-0.6-3.4-0.9c-1.1-0.2-2.3-0.3-3.7-0.5
		c-1.4-0.2-3-0.4-4.7-1c-1.7-0.6-3.1-1.5-4.4-2.5c-2.5-2-4.2-4.3-5.9-6.2c-1.7-1.9-3.4-3.8-5.2-5.5c-3.7-3.4-7.7-6.2-12.4-7.6
		c-4.7-1.5-9.8-2-15-2.2c-5.2-0.2-10.5-0.2-16-0.8c-5.5-0.7-10.9-2.1-15.8-4.8c-2.5-1.3-4.8-3-6.7-5.1c-1.9-2.1-3.5-4.6-4.3-7.3
		l2.7-0.9c0.8,2.3,2.2,4.4,3.9,6.1c1.7,1.7,3.8,3.1,6,4.2c4.5,2.2,9.5,3.3,14.6,3.7c5.1,0.4,10.4,0.1,15.7,0.1
		c5.4,0,10.9,0.3,16.4,1.8c2.7,0.8,5.4,1.9,7.9,3.3c2.5,1.4,4.8,3.1,6.9,4.9c2.1,1.8,4.1,3.8,5.9,5.8c1.8,2,3.5,3.9,5.2,5.1
		c1.8,1.3,3.1,1.6,5.6,1.8c1.2,0.1,2.7,0.2,4.2,0.4c1.5,0.2,2.9,0.5,4.3,0.9c5.7,1.6,10.6,4.2,15.3,6.7L216.6,318.6z"/>
</g>
<g>
	<path class="st5" d="M186.5,413.1c-5.1,0-10.2-0.9-14.9-2.6c-4.7-1.6-9.1-3.8-13.4-6.2c-8.4-4.9-15.9-10.7-24-15.4
		c-4-2.4-8.2-4.4-12.5-5.9c-4.3-1.5-8.9-2.4-13.5-2.8c-4.6-0.4-9.3-0.2-13.8,0.6c-4.6,0.8-9.1,2.1-13.3,3.9l-0.9-1.9
		c4.4-2.1,9-3.6,13.8-4.6c4.8-0.9,9.6-1.3,14.5-1.1c4.9,0.3,9.7,1,14.4,2.5c4.7,1.4,9.2,3.5,13.4,5.8c8.5,4.6,16.2,10.2,24.4,14.6
		c4.1,2.2,8.3,4.1,12.6,5.4c4.3,1.3,8.7,2,13.1,1.8L186.5,413.1z"/>
</g>
<path class="st4" d="M291.4,321.1c-2.1,0.4-4.1,1.2-5.8,2.3c-4.8,3.2-7.7,8.4-10.2,13.6c-14.5,29.5-21.2,62-27.8,94.2
	c-6.9,33.8-13.8,67.8-25.8,100.1c-6.8,18.3-15.3,36.1-27.1,51.6c-3.8,5-8.1,9.8-13.1,13.5h51c0.4-0.3,0.7-0.5,1.1-0.8
	c3.9-3.1,7.7-6.5,10-11c2.9-5.7,2.9-12.4,2.9-18.8c0-52.5,5.8-104.9,17.4-156.1c8.3-36.8,1.6-61.2,30.6-85.3
	c0.9-0.8,1.1-1.9,0.8-3.3C293.9,320.9,292.7,320.9,291.4,321.1z"/>
<rect x="581.9" y="82.6" class="st0" width="15.9" height="43.6"/>
<rect x="604.3" y="82.6" class="st0" width="15.9" height="43.6"/>
<rect x="626.8" y="83" class="st0" width="15.9" height="43.6"/>
<rect x="650.6" y="83" class="st0" width="15.9" height="43.6"/>
<rect x="673.3" y="83" class="st0" width="15.9" height="43.6"/>
<rect x="673.3" y="138.8" class="st0" width="15.9" height="43.6"/>
<rect x="650.6" y="138.8" class="st0" width="15.9" height="43.6"/>
<rect x="627.6" y="138.8" class="st0" width="15.9" height="43.6"/>
<rect x="604.7" y="138.8" class="st0" width="15.9" height="43.6"/>
<rect x="581.9" y="138.8" class="st0" width="15.9" height="43.6"/>
<path class="st14" d="M734,150c1.9,2.7,3.7,5.8,6.8,7.1c4.6,2,10-0.7,13.3-4.3c3.3-3.6,5.3-8.1,8.7-11.6c4-4,9.5-6.3,15-8.2
	c-13-3.4-28,1.4-36.2,11.5c0.8-2.4-1.7-4.7-4-6c-3.6-2-7.5-3.6-11.5-4.6c-1.9-0.5-9-3-8.4,0.2c0.5,2.7,6.2,5.4,8.2,7.1
	C728.8,143.9,731.7,146.7,734,150z"/>
</svg>
